<?xml version="1.0" encoding="UTF-8" standalone="no"?>
<svg
   version="1.0"
   preserveAspectRatio="xMidYMid meet"
   viewBox="88.19 161.38 371.6 249.72"
   id="svg28"
   sodipodi:docname="logo.svg"
   inkscape:version="1.2.1 (9c6d41e410, 2022-07-14)"
   xmlns:inkscape="http://www.inkscape.org/namespaces/inkscape"
   xmlns:sodipodi="http://sodipodi.sourceforge.net/DTD/sodipodi-0.dtd"
   xmlns="http://www.w3.org/2000/svg"
   xmlns:svg="http://www.w3.org/2000/svg">
  <defs
     id="defs32" />
  <sodipodi:namedview
     id="namedview30"
     pagecolor="#ffffff"
     bordercolor="#000000"
     borderopacity="0.25"
     inkscape:showpageshadow="2"
     inkscape:pageopacity="0.0"
     inkscape:pagecheckerboard="0"
     inkscape:deskcolor="#d1d1d1"
     showgrid="false"
     inkscape:zoom="3.2561894"
     inkscape:cx="87.832729"
     inkscape:cy="145.87604"
     inkscape:window-width="1920"
     inkscape:window-height="1017"
     inkscape:window-x="-8"
     inkscape:window-y="-8"
     inkscape:window-maximized="1"
     inkscape:current-layer="g26" />
  <metadata
     id="metadata18">
Created by potrace 1.16, written by Peter Selinger 2001-2019
</metadata>
  <g
     transform="translate(0.000000,575.000000) scale(0.100000,-0.100000)"
     fill="#000000"
     stroke="none"
     id="g26">
    <path
       id="path20"
       style="fill:#000000;fill-opacity:0;stroke:#000000;stroke-width:49.3284;stroke-dasharray:none;stroke-opacity:1"
       d="M 2074.2438 4105.6336 C 1830.7434 4106.6129 1601.1691 4103.6746 1562.4078 4098.7781 C 1477.9282 4088.0056 1415.3073 4068.4135 1322.8766 4024.3445 C 1250.3233 3990.0686 1164.8402 3927.4003 1204.5953 3938.1727 C 1283.1117 3958.7381 1433.1873 3964.6042 1923.1695 3969.5008 L 2471.8023 3974.4031 L 2527.4664 3947.9578 C 2565.2339 3929.3509 2590.0671 3908.7966 2608.9508 3881.3758 C 2622.8651 3858.8516 2636.7872 3838.2786 2638.775 3835.3406 C 2640.7628 3832.4028 2646.718 3838.2819 2652.6813 3848.075 C 2732.1915 3989.096 2906.128 4015.5227 3015.4547 3901.9227 C 3076.0812 3840.226 3073.1025 3893.1268 3078.0719 2865.8289 L 3083.0328 1920.7898 L 3111.8609 1862.9969 C 3148.6344 1788.5691 3212.2375 1725.9028 3284.7906 1692.6062 L 3341.4508 1666.1609 L 3823.482 1666.1609 L 4305.5133 1666.1609 L 4372.0953 1698.4852 C 4520.1833 1769.975 4603.678 1934.4931 4568.8922 2083.3484 C 4542.0574 2196.9487 4469.5079 2285.0805 4360.1812 2336.0047 L 4305.5133 2361.4734 L 3761.8609 2364.4031 L 3217.2125 2367.3523 L 3217.2125 3074.4227 C 3217.2125 3853.9549 3217.2141 3851.0142 3156.5875 3945.0281 C 3116.8323 4005.7454 3067.1378 4047.8502 2998.5602 4079.1883 C 2952.8417 4100.7332 2929.9739 4104.657 2854.4391 4104.657 C 2773.9349 4104.657 2758.0455 4101.7067 2702.3883 4074.2859 L 2640.7672 4043.9344 L 2579.1461 4074.2859 L 2517.525 4104.657 L 2074.2438 4105.6336 z M 2635.2789 3672.5672 L 2612.7203 3641.7078 C 2600.9481 3624.7772 2572.4951 3600.8658 2548.9508 3588.9148 L 2507.7398 3566.0047 L 1860.2789 3561.0242 C 1212.8114 3556.0446 1212.8176 3556.0592 1156.9 3533.1531 C 1079.4001 3501.2838 1010.7303 3432.5519 971.48984 3346.9031 C 943.04051 3287.1481 939.10703 3267.2424 939.10703 3197.5281 C 939.10703 3129.8058 944.02152 3106.8914 971.48984 3040.1648 C 1056.8378 2836.0018 1211.8216 2678.6461 1409.9859 2594.9891 C 1524.7642 2547.185 1605.211 2535.243 1826.9195 2535.243 C 1979.9574 2535.243 2029.0091 2532.2526 2050.5914 2520.3016 C 2097.68 2496.3996 2104.5495 2443.6139 2067.2711 2398.7977 L 2043.7359 2370.907 L 1608.15 2365.9266 L 1173.5797 2360.9461 L 1118.6383 2333.0555 C 1019.5561 2284.2555 936.15976 2168.7392 918.50156 2059.1883 C 900.84335 1946.6496 961.6682 1799.2535 1055.8453 1726.5516 C 1151.0034 1653.8495 1147.0776 1653.8367 1659.1656 1653.8367 C 2067.2664 1653.8367 2123.1902 1655.8317 2191.8609 1671.7664 C 2268.3799 1690.6888 2437.1206 1769.3711 2483.2281 1809.2078 L 2507.7398 1830.1258 L 2478.3258 1823.1531 C 2388.0727 1803.2348 2250.7258 1797.2537 1781.8023 1791.2781 C 1412.942 1787.2945 1250.0954 1789.2873 1221.6461 1797.2547 C 1059.7792 1842.0709 1000.9134 2030.3035 1110.7867 2151.8055 C 1182.4005 2230.4829 1142.1718 2226.493 1822.9938 2226.493 C 2220.3034 2226.493 2450.852 2230.4786 2488.1305 2237.45 C 2548.9532 2248.4051 2608.7836 2275.3057 2628.4039 2299.2078 C 2637.233 2310.1629 2640.1901 2478.459 2638.2281 2992.3523 L 2635.2789 3672.5672 z M 1502.2125 3421.6102 L 1495.3375 3394.7156 C 1474.7363 3314.0464 1506.136 3213.4573 1566.9586 3166.6492 C 1627.7813 3118.8452 1658.1965 3113.8561 1884.8102 3112.8602 C 2036.8669 3112.8602 2113.3901 3107.8779 2159.4977 3097.9187 C 2251.7128 3076.0086 2373.3419 3011.2864 2442.9938 2947.5477 L 2502.8375 2891.7664 L 2500.8844 2631.8445 L 2497.9352 2370.907 L 2357.6617 2367.9187 L 2217.3688 2364.9305 L 2224.2438 2423.7 C 2234.0538 2518.3122 2189.8997 2602.9658 2105.5328 2647.782 C 2069.2353 2667.7004 2045.695 2669.6775 1816.1383 2675.6531 C 1595.4107 2680.6326 1559.0995 2683.6253 1509.068 2702.5477 C 1305.9986 2778.2374 1146.1078 2938.5768 1088.2281 3124.8133 C 1052.9117 3241.3356 1088.227 3332.9693 1196.1383 3397.7039 C 1228.5116 3417.6223 1247.1536 3419.6182 1367.818 3420.6141 L 1502.2125 3421.6102 z M 2098.6578 3421.6102 L 2502.8375 3421.6102 L 2502.8375 3251.2977 L 2502.8375 3081.0047 L 2478.3258 3096.9227 C 2288.0096 3223.4041 2181.0632 3251.2979 1878.9117 3252.2937 C 1697.4246 3252.2937 1679.7802 3254.2891 1656.2359 3272.2156 C 1625.8246 3297.1135 1616.0085 3334.9561 1631.7047 3369.8133 C 1656.23 3420.605 1663.0887 3421.6102 2098.6578 3421.6102 z M 3217.2125 2229.2664 L 3743.9703 2229.2664 C 4243.8913 2229.2664 4273.6963 2228.2807 4308.482 2210.6531 C 4383.023 2172.46 4439.6734 2087.2656 4439.6734 2013.8172 C 4439.6734 1938.4102 4381.0481 1851.2572 4305.5133 1816.9812 C 4268.7398 1800.333 4232.9646 1798.368 3825.4742 1798.368 C 3349.4063 1798.368 3354.3688 1798.3703 3287.7789 1853.2117 C 3229.1401 1901.198 3217.2125 1941.3542 3217.2125 2095.1062 L 3217.2125 2229.2664 z M 2644.4 2109.325 L 2582.8766 2094.95 L 2522.3297 2080.5555 L 2526.1773 1989.4812 C 2530.0222 1881.1486 2551.1535 1830.3449 2619.4 1760.3602 C 2668.4222 1710.5079 2742.4356 1676.0002 2821.2555 1667.3719 L 2865.4742 1662.5672 L 2827.0367 1682.7039 C 2805.8898 1693.2496 2772.2419 1718.1768 2752.0563 1738.3094 C 2685.7322 1801.5833 2660.7309 1869.6546 2651.1188 2017.2937 L 2644.4 2109.325 z " />
  </g>
</svg>
